<svg width="40" height="34" viewBox="0 0 40 34" fill="none" xmlns="http://www.w3.org/2000/svg">
<path fill-rule="evenodd" clip-rule="evenodd" d="M18.3331 0H8.33325V3.3333H5.00036V13.3332H8.33325V16.6665H18.3331V13.3332H8.33366V3.3333H18.3331V0ZM18.3336 3.3333H21.6669V13.3332H18.3336V3.3333ZM0 23.3331H3.3333V29.9997H23.3331V33.333H3.3333H0V23.3331ZM3.3333 23.3331H23.3331V19.9998H3.3333V23.3331ZM26.6668 23.3331H23.3335V33.333H26.6668V23.3331ZM24.9997 0H31.6663V3.3333H24.9997V0ZM31.6663 13.3332H24.9997V16.6665H31.6663V13.3332ZM31.6668 3.3333H35V13.3332H31.6668V3.3333ZM40 23.3331H36.6667V29.9997L29.9997 29.9997V33.333H39.9996V29.9997L40 29.9997V23.3331ZM29.9997 19.9998H36.6663V23.3331H29.9997V19.9998Z" fill="white"/>
</svg>
